<svg width="100" height="58" viewBox="0 0 100 58" fill="none" xmlns="http://www.w3.org/2000/svg">
<path d="M71.8705 17.0114C72.6259 16.9577 73.1948 16.3018 73.1411 15.5464C73.0874 14.791 72.4315 14.2221 71.6761 14.2758C70.9207 14.3295 70.3518 14.9854 70.4055 15.7408C70.4592 16.4963 71.1151 17.0651 71.8705 17.0114Z" fill="white"/>
<path d="M66.4121 18.1331C67.1694 18.1331 67.7833 17.5191 67.7833 16.7618C67.7833 16.0045 67.1694 15.3906 66.4121 15.3906C65.6548 15.3906 65.0409 16.0045 65.0409 16.7618C65.0409 17.5191 65.6548 18.1331 66.4121 18.1331Z" fill="white"/>
<path d="M81.1146 18.2598C80.3585 18.2598 79.7433 18.8749 79.7433 19.631C79.7433 20.387 80.3585 21.0022 81.1146 21.0022C81.8706 21.0022 82.4858 20.387 82.4858 19.631C82.4838 18.8729 81.8706 18.2598 81.1146 18.2598Z" fill="white"/>
<path d="M76.6299 18.0081C77.3859 18.0081 78.0011 17.3929 78.0011 16.6368C78.0011 15.8808 77.3859 15.2656 76.6299 15.2656C75.8738 15.2656 75.2587 15.8808 75.2587 16.6368C75.2587 17.3929 75.8738 18.0081 76.6299 18.0081Z" fill="white"/>
<path d="M84.1051 35.2014C84.8624 35.2014 85.4763 34.5875 85.4763 33.8302C85.4763 33.0729 84.8624 32.459 84.1051 32.459C83.3478 32.459 82.7339 33.0729 82.7339 33.8302C82.7339 34.5875 83.3478 35.2014 84.1051 35.2014Z" fill="white"/>
<path d="M81.1146 39.6858C81.8706 39.6858 82.4858 39.0706 82.4858 38.3146C82.4858 37.5585 81.8706 36.9434 81.1146 36.9434C80.3585 36.9434 79.7433 37.5585 79.7433 38.3146C79.7433 39.0706 80.3585 39.6858 81.1146 39.6858Z" fill="white"/>
<path d="M77.0029 42.5549C77.7602 42.5549 78.3742 41.941 78.3742 41.1837C78.3742 40.4264 77.7602 39.8125 77.0029 39.8125C76.2456 39.8125 75.6317 40.4264 75.6317 41.1837C75.6317 41.941 76.2456 42.5549 77.0029 42.5549Z" fill="white"/>
<path d="M71.77 43.5491C72.5261 43.5491 73.1412 42.9339 73.1412 42.1779C73.1412 41.4218 72.5261 40.8066 71.77 40.8066C71.014 40.8066 70.3988 41.4218 70.3988 42.1779C70.3988 42.9359 71.014 43.5491 71.77 43.5491Z" fill="white"/>
<path d="M68.2814 41.3048C68.2814 40.5488 67.6662 39.9336 66.9102 39.9336C66.1541 39.9336 65.5389 40.5488 65.5389 41.3048C65.5389 42.0609 66.1541 42.676 66.9102 42.676C67.6662 42.676 68.2814 42.0609 68.2814 41.3048Z" fill="white"/>
<path d="M83.855 24.9866C84.611 24.9866 85.2262 24.3714 85.2262 23.6154C85.2262 22.8593 84.611 22.2441 83.855 22.2441C83.0989 22.2441 82.4838 22.8593 82.4838 23.6154C82.4838 24.3714 83.0989 24.9866 83.855 24.9866Z" fill="white"/>
<path d="M84.9762 30.344C85.7335 30.344 86.3474 29.7301 86.3474 28.9728C86.3474 28.2155 85.7335 27.6016 84.9762 27.6016C84.2189 27.6016 83.605 28.2155 83.605 28.9728C83.605 29.7301 84.2189 30.344 84.9762 30.344Z" fill="#C6E3BC"/>
<path d="M71.6113 8.0918C70.4445 8.0918 69.496 9.04035 69.496 10.2072C69.496 11.374 70.4445 12.3225 71.6113 12.3225C72.7782 12.3225 73.7267 11.374 73.7267 10.2072C73.7247 9.04035 72.7762 8.0918 71.6113 8.0918Z" fill="white"/>
<path d="M64.2096 13.9085C65.3779 13.9085 66.325 12.9614 66.325 11.7931C66.325 10.6248 65.3779 9.67773 64.2096 9.67773C63.0413 9.67773 62.0942 10.6248 62.0942 11.7931C62.0942 12.9614 63.0413 13.9085 64.2096 13.9085Z" fill="white"/>
<path d="M78.4834 13.6429C79.6503 13.6429 80.5988 12.6943 80.5988 11.5275C80.5988 10.3606 79.6503 9.41211 78.4834 9.41211C77.3166 9.41211 76.368 10.3606 76.368 11.5275C76.37 12.6943 77.3186 13.6429 78.4834 13.6429Z" fill="white"/>
<path d="M84.8275 13.6426C83.6607 13.6426 82.7122 14.5911 82.7122 15.7579C82.7122 16.9248 83.6607 17.8733 84.8275 17.8733C85.9944 17.8733 86.9429 16.9248 86.9429 15.7579C86.9429 14.5911 85.9944 13.6426 84.8275 13.6426Z" fill="white"/>
<path d="M64.7394 44.3047C63.5726 44.3047 62.624 45.2532 62.624 46.4201C62.624 47.5869 63.5726 48.5354 64.7394 48.5354C65.9062 48.5354 66.8548 47.5869 66.8548 46.4201C66.8528 45.2532 65.9042 44.3047 64.7394 44.3047Z" fill="white"/>
<path d="M69.496 47.7404C69.496 48.9072 70.4445 49.8557 71.6113 49.8557C72.7782 49.8557 73.7267 48.9072 73.7267 47.7404C73.7267 46.5736 72.7782 45.625 71.6113 45.625C70.4445 45.627 69.496 46.5755 69.496 47.7404Z" fill="white"/>
<path d="M79.1442 48.2698C80.3125 48.2698 81.2596 47.3227 81.2596 46.1544C81.2596 44.9861 80.3125 44.0391 79.1442 44.0391C77.9759 44.0391 77.0288 44.9861 77.0288 46.1544C77.0288 47.3227 77.9759 48.2698 79.1442 48.2698Z" fill="white"/>
<path d="M84.8275 44.305C85.9944 44.305 86.9429 43.3564 86.9429 42.1896C86.9429 41.0228 85.9944 40.0742 84.8275 40.0742C83.6607 40.0742 82.7122 41.0228 82.7122 42.1896C82.7122 43.3564 83.6607 44.305 84.8275 44.305Z" fill="white"/>
<path d="M89.0563 37.9612C90.2246 37.9612 91.1717 37.0141 91.1717 35.8458C91.1717 34.6776 90.2246 33.7305 89.0563 33.7305C87.888 33.7305 86.9409 34.6776 86.9409 35.8458C86.9409 37.0141 87.888 37.9612 89.0563 37.9612Z" fill="white"/>
<path d="M88.7923 23.6878C89.9606 23.6878 90.9077 22.7407 90.9077 21.5724C90.9077 20.4041 89.9606 19.457 88.7923 19.457C87.624 19.457 86.6769 20.4041 86.6769 21.5724C86.6769 22.7407 87.624 23.6878 88.7923 23.6878Z" fill="white"/>
<path d="M90.5315 31.0858C91.6969 31.003 92.5744 29.9911 92.4916 28.8258C92.4088 27.6604 91.3969 26.7828 90.2316 26.8656C89.0662 26.9485 88.1886 27.9603 88.2714 29.1257C88.3543 30.2911 89.3661 31.1686 90.5315 31.0858Z" fill="#C6E3BC"/>
<path d="M79.8682 26.4806C80.4184 26.4806 80.8644 26.0346 80.8644 25.4845C80.8644 24.9343 80.4184 24.4883 79.8682 24.4883C79.3181 24.4883 78.8721 24.9343 78.8721 25.4845C78.8721 26.0346 79.3181 26.4806 79.8682 26.4806Z" fill="white"/>
<path d="M80.6164 29.9689C81.1665 29.9689 81.6125 29.5229 81.6125 28.9727C81.6125 28.4226 81.1665 27.9766 80.6164 27.9766C80.0662 27.9766 79.6202 28.4226 79.6202 28.9727C79.6202 29.5229 80.0662 29.9689 80.6164 29.9689Z" fill="#C6E3BC"/>
<path d="M78.9951 32.211C78.9951 32.7607 79.4416 33.2072 79.9913 33.2072C80.541 33.2072 80.9875 32.7607 80.9875 32.211C80.9875 31.6613 80.541 31.2148 79.9913 31.2148C79.4436 31.2148 78.9951 31.6613 78.9951 32.211Z" fill="white"/>
<path d="M71.1863 0.0625C69.6921 0.0625 68.4776 1.27695 68.4776 2.7712C68.4776 4.26546 69.6921 5.47992 71.1863 5.47992C72.6806 5.47992 73.895 4.26546 73.895 2.7712C73.895 1.27893 72.6806 0.0625 71.1863 0.0625Z" fill="white"/>
<path d="M57.8868 4.98801C57.8868 6.48227 59.1013 7.69671 60.5956 7.69671C62.0898 7.69671 63.3043 6.48227 63.3043 4.98801C63.3043 3.49376 62.0898 2.2793 60.5956 2.2793C59.1033 2.2793 57.8868 3.49376 57.8868 4.98801Z" fill="white"/>
<path d="M86.9464 10.654C86.9464 12.1483 88.1609 13.3627 89.6551 13.3627C91.1494 13.3627 92.3638 12.1483 92.3638 10.654C92.3638 9.15977 91.1494 7.94531 89.6551 7.94531C88.1629 7.94333 86.9464 9.15977 86.9464 10.654Z" fill="white"/>
<path d="M80.7908 7.45062C82.285 7.45062 83.4995 6.23616 83.4995 4.74191C83.4995 3.24765 82.285 2.0332 80.7908 2.0332C79.2965 2.0332 78.0821 3.24765 78.0821 4.74191C78.0821 6.23616 79.2965 7.45062 80.7908 7.45062Z" fill="white"/>
<path d="M92.8579 38.7263C92.8579 40.2205 94.0724 41.435 95.5666 41.435C97.0609 41.435 98.2753 40.2205 98.2753 38.7263C98.2753 37.232 97.0609 36.0176 95.5666 36.0176C94.0724 36.0176 92.8579 37.234 92.8579 38.7263Z" fill="white"/>
<path d="M89.6571 44.8848C88.1629 44.8848 86.9484 46.0992 86.9484 47.5935C86.9484 49.0877 88.1629 50.3022 89.6571 50.3022C91.1514 50.3022 92.3658 49.0877 92.3658 47.5935C92.3658 46.1012 91.1494 44.8848 89.6571 44.8848Z" fill="white"/>
<path d="M84.2377 53.2575C84.2377 51.7633 83.0233 50.5488 81.529 50.5488C80.0348 50.5488 78.8203 51.7633 78.8203 53.2575C78.8203 54.7518 80.0348 55.9662 81.529 55.9662C83.0233 55.9662 84.2377 54.7498 84.2377 53.2575Z" fill="white"/>
<path d="M71.1863 57.9369C72.6806 57.9369 73.895 56.7225 73.895 55.2282C73.895 53.734 72.6806 52.5195 71.1863 52.5195C69.6921 52.5195 68.4776 53.734 68.4776 55.2282C68.4776 56.7205 69.6921 57.9369 71.1863 57.9369Z" fill="white"/>
<path d="M61.5818 50.7949C60.0876 50.7949 58.8731 52.0094 58.8731 53.5036C58.8731 54.9979 60.0876 56.2123 61.5818 56.2123C63.0761 56.2123 64.2905 54.9979 64.2905 53.5036C64.2905 52.0094 63.0741 50.7949 61.5818 50.7949Z" fill="white"/>
<path d="M95.0745 15.8242C93.5802 15.8242 92.3658 17.0387 92.3658 18.5329C92.3658 20.0272 93.5802 21.2416 95.0745 21.2416C96.5688 21.2416 97.7832 20.0272 97.7832 18.5329C97.7832 17.0387 96.5688 15.8242 95.0745 15.8242Z" fill="white"/>
<path d="M99.9998 29.1228C99.9998 27.6285 98.7854 26.4141 97.2911 26.4141C95.7969 26.4141 94.5824 27.6285 94.5824 29.1228C94.5824 30.617 95.7969 31.8315 97.2911 31.8315C98.7854 31.8315 99.9998 30.617 99.9998 29.1228Z" fill="#C6E3BC"/>
<path d="M61.2685 36.7048L58.6153 34.0497C55.8927 36.7723 51.4774 36.7723 48.7548 34.0497C46.0322 31.3271 46.0322 26.9118 48.7548 24.1892C51.4358 21.5083 55.7498 21.4726 58.4824 24.0702L61.1355 21.415C56.9385 17.353 50.2471 17.3887 46.0997 21.5341C41.9106 25.7232 41.9106 32.5138 46.0997 36.7029C50.2888 40.8939 57.0794 40.8939 61.2685 36.7048Z" fill="white"/>
<path d="M63.9592 36.7048C68.1483 40.8939 74.9389 40.8939 79.128 36.7048L76.4748 34.0497C73.7522 36.7723 69.337 36.7723 66.6144 34.0497C63.8918 31.3271 63.8918 26.9118 66.6144 24.1892C69.2953 21.5083 73.6094 21.4726 76.3419 24.0702L78.995 21.415C74.798 17.353 68.1066 17.3887 63.9592 21.5341C59.7721 25.7252 59.7721 32.5178 63.9592 36.7048Z" fill="#C6E3BC"/>
<path d="M10.7257 18.3945C4.80225 18.3945 0 23.1968 0 29.1202C0 35.0437 4.80225 39.8459 10.7257 39.8459C16.6491 39.8459 21.4514 35.0437 21.4514 29.1202C21.4514 23.1968 16.6491 18.3945 10.7257 18.3945ZM10.7257 36.0914C6.87596 36.0914 3.75449 32.97 3.75449 29.1202C3.75449 25.2705 6.87596 22.149 10.7257 22.149C14.5754 22.149 17.6969 25.2705 17.6969 29.1202C17.6969 32.97 14.5754 36.0914 10.7257 36.0914Z" fill="#C6E3BC"/>
<path d="M32.203 18.3945C29.5399 18.3945 27.107 19.3669 25.2318 20.9743V18.3945H21.4792V29.1202V48.7956H25.2318V37.2662C27.107 38.8716 29.5419 39.8439 32.203 39.8439C38.1264 39.8439 42.9287 35.0417 42.9287 29.1182C42.9287 23.1948 38.1264 18.3945 32.203 18.3945ZM32.203 36.0914C28.3532 36.0914 25.2318 32.97 25.2318 29.1202C25.2318 25.2705 28.3532 22.149 32.203 22.149C36.0527 22.149 39.1742 25.2705 39.1742 29.1202C39.1742 32.97 36.0527 36.0914 32.203 36.0914Z" fill="#C6E3BC"/>
</svg>
